<?xml version="1.0" encoding="utf-8"?>
<!-- Generator: Adobe Illustrator 25.4.1, SVG Export Plug-In . SVG Version: 6.00 Build 0)  -->
<svg version="1.1" id="Layer_1" xmlns="http://www.w3.org/2000/svg" xmlns:xlink="http://www.w3.org/1999/xlink" x="0px" y="0px"
	 width="1200px" height="800px" viewBox="0 0 1200 800" style="enable-background:new 0 0 1200 800;" xml:space="preserve">
<style type="text/css">
	.st0{fill:#FFFFFF;}
	.st1{fill:#E67817;}
	.st2{fill:#241A71;}
	.st3{fill:#00A9E6;}
	.st4{fill:#01933F;}
	.st5{fill:#D7271D;}
	.st6{fill:#28166A;}
</style>
<path class="st0" d="M0,0v800h1200V0H0z"/>
<g>
	<g>
		<g>
			<g>
				<path class="st1" d="M600.259,627.5v-0.002c-0.081,0-0.161,0.002-0.241,0.002H600.259z"/>
				<path class="st1" d="M767.181,479.6c5.501-12.404,9.813-25.5,12.716-39.161L758.3,435.58
					c-16.187,75.946-80.591,132.821-158.112,132.942v-0.075h0.086c-77.463,0-142.254-56.879-158.458-132.907l-21.627,4.879
					c2.902,13.662,7.182,26.766,12.683,39.171l-32.164,12.37c34.188,79.775,110.68,135.311,199.567,135.311h-0.086v0.226
					c88.921-0.101,164.948-55.716,199.105-135.419L767.181,479.6z"/>
			</g>
		</g>
		<g>
			<path class="st1" d="M457.266,379.433c7.466-76.383,68.854-135.967,143.493-135.967c74.638,0,136.03,59.583,143.496,135.967h0.77
				V220.344H455.491v159.089H457.266z"/>
			<path class="st0" d="M739.773,435.705c0.136-0.514,0.269-1.029,0.399-1.546l-0.964,0.796L739.773,435.705z"/>
			<path class="st0" d="M502.906,419.406l48.42-40.018l48.423,40.018l48.42-40.018l48.428,40.019l47.726-39.254
				c-7.174-76.729-68.933-136.687-144.066-136.687c-75.385,0-137.301,60.361-144.131,137.459L502.906,419.406z M526.771,293.015
				l25.512-21.044l48.447,40.018l48.525-40.018l24.578,20.223v25.485l-24.564-20.222l-22.825,18.826l-25.666,21.193l-25.641-21.18
				l-0.006,0l-22.846-18.838l-25.514,21.043V293.015z M526.771,328.82l25.512-21.043l48.447,40.018l48.525-40.018l24.578,20.223
				v25.486l-24.564-20.222l-22.825,18.826l-25.666,21.192l-25.641-21.181l-22.849-18.838l-25.517,21.044L526.771,328.82
				L526.771,328.82z M526.771,364.626l25.512-21.044l48.447,40.018l48.525-40.018l24.578,20.223v25.485l-24.564-20.222
				l-22.825,18.826l-25.666,21.192l-25.641-21.18l-0.006,0l-22.846-18.838l-25.514,21.043L526.771,364.626L526.771,364.626z"/>
			<g>
				<path class="st2" d="M696.598,419.407l-48.428-40.019l-48.42,40.018l-48.422-40.018l-48.42,40.018l-46.779-38.48
					c-0.414,4.672-0.636,9.403-0.636,14.188c0,3.433,0.124,6.834,0.34,10.209c0.014,0.22,0.019,0.442,0.034,0.662l47.041,38.695
					l48.42-40.018l48.423,40.018l48.42-40.018l48.428,40.019l48.13-39.962c0.19-3.177,0.298-6.377,0.298-9.604
					c0-5.049-0.241-10.039-0.701-14.961L696.598,419.407z"/>
			</g>
			<g>
				<path class="st3" d="M696.598,444.681l-48.428-40.019l-48.42,40.018l-48.422-40.018l-48.42,40.018l-47.041-38.695
					c0.673,9.95,2.265,19.633,4.683,28.961l42.358,35.008l48.42-40.018l48.422,40.018l48.42-40.018l48.428,40.019l42.513-35.13
					l0.098,0.129l0.964-0.796c2.358-9.291,3.885-18.934,4.513-28.835c0.013-0.202,0.031-0.403,0.043-0.605L696.598,444.681z"/>
			</g>
			<g>
				<path class="st2" d="M739.11,434.825l-42.513,35.13l-48.428-40.019l-48.42,40.018l-48.422-40.018l-48.42,40.018l-42.358-35.008
					c3.51,13.54,8.761,26.327,15.493,38.079l26.865,22.204l48.42-40.018l48.422,40.018l48.42-40.018l48.428,40.018l28.758-23.764
					c6.188-11.101,11.066-23.097,14.417-35.762l-0.565-0.749L739.11,434.825z"/>
			</g>
			<g>
				<path class="st3" d="M648.17,455.212l-48.42,40.018l-48.422-40.018l-48.42,40.018l-26.865-22.204
					c9.058,15.813,20.787,29.755,34.537,41.137l40.748-33.676l48.422,40.018l48.42-40.018l41.261,34.096
					c14.422-11.829,26.643-26.463,35.925-43.116l-28.758,23.764L648.17,455.212z"/>
			</g>
			<g>
				<path class="st2" d="M599.749,520.504l-48.422-40.018l-40.748,33.676c5.183,4.29,10.656,8.212,16.379,11.739l24.369-20.141
					l48.423,40.018l48.42-40.018l24.808,20.5c5.746-3.504,11.244-7.406,16.452-11.679l-41.261-34.096L599.749,520.504z"/>
			</g>
			<g>
				<path class="st3" d="M599.749,545.778l-48.422-40.018l-24.369,20.141c21.501,13.251,46.55,20.86,73.301,20.86
					c26.509,0,51.349-7.47,72.719-20.501l-24.808-20.5L599.749,545.778z"/>
			</g>
			<g>
				<polygon class="st4" points="575.108,387.906 575.108,362.42 600.746,383.601 552.278,343.582 526.771,364.626 526.771,390.112 
					552.274,369.069 				"/>
			</g>
			<g>
				<polygon class="st4" points="626.408,387.894 649.16,369.069 673.605,389.29 673.605,363.805 649.154,343.582 600.749,383.601 
					626.408,362.408 				"/>
			</g>
			<g>
				<polygon class="st4" points="626.408,352.089 649.16,333.263 673.605,353.485 673.605,328 649.154,307.777 600.749,347.795 
					626.408,326.602 				"/>
			</g>
			<g>
				<polygon class="st4" points="575.108,352.101 575.108,326.614 600.746,347.795 552.278,307.777 526.771,328.82 526.771,354.307 
					552.274,333.263 				"/>
			</g>
			<g>
				<polygon class="st4" points="575.108,316.295 575.108,290.809 600.746,311.99 552.278,271.972 526.771,293.015 526.771,318.501 
					552.274,297.458 				"/>
			</g>
			<g>
				<polygon class="st4" points="626.408,316.283 649.16,297.458 673.605,317.679 673.605,292.194 649.154,271.972 600.749,311.99 
					626.408,290.797 				"/>
			</g>
			<g>
				<polygon class="st5" points="575.108,387.906 575.108,387.907 600.751,409.087 626.408,387.894 626.408,362.408 
					600.751,383.601 575.108,362.42 				"/>
			</g>
			<g>
				<polygon class="st5" points="575.108,352.101 600.751,373.281 626.408,352.089 626.408,326.602 600.751,347.795 
					575.108,326.614 				"/>
			</g>
			<g>
				<polygon class="st5" points="575.108,316.295 575.108,316.296 600.751,337.476 626.408,316.283 626.408,290.797 600.751,311.99 
					575.108,290.809 				"/>
			</g>
		</g>
		<g>
			<g>
				<path class="st6" d="M493.378,197.514l10.619,0.686c-0.684,3.749-3.144,6.834-7.383,9.257
					c-4.238,2.423-9.804,3.634-16.697,3.634c-5.807,0-10.519-0.859-14.136-2.578c-3.618-1.718-6.404-4.05-8.361-6.994
					c-1.956-2.944-2.934-6.189-2.934-9.737c0-5.704,2.297-10.344,6.893-13.919c4.596-3.575,10.915-5.362,18.957-5.362
					c6.303,0,11.551,1.143,15.742,3.428c4.192,2.286,6.831,5.559,7.918,9.819l-10.619,0.658c-1.956-5.649-6.272-8.475-12.948-8.475
					c-4.286,0-7.616,1.175-9.99,3.524c-2.376,2.35-3.563,5.755-3.563,10.217c0,4.535,1.273,7.959,3.819,10.272
					c2.545,2.313,5.915,3.47,10.106,3.47c3.354,0,6.21-0.777,8.57-2.332C491.731,201.528,493.067,199.671,493.378,197.514z"/>
				<path class="st6" d="M524.537,210.514h-11.458v-37.438h11.458V210.514z"/>
				<path class="st6" d="M600.874,210.514h-11.69v-32.776l-17.606,32.776h-6.008l-17.698-32.776v32.776h-9.361v-37.438h17.931
					l13.32,24.109l13.088-24.109h18.025V210.514z"/>
				<path class="st6" d="M664.776,210.514h-12.25l-5.076-8.914h-24.453l-4.983,8.914h-9.781l21.099-37.438h14.112L664.776,210.514z
					 M644.376,196.197l-9.269-16.703l-9.268,16.703H644.376z"/>
				<path class="st6" d="M719.595,210.514h-11.458V194.25h-24.266v16.264h-11.458v-37.438h11.458v15.387h24.266v-15.387h11.458
					V210.514z"/>
				<path class="st6" d="M745.025,210.514h-11.458v-37.438h11.458V210.514z"/>
			</g>
		</g>
		<g>
			<path class="st0" d="M423.367,498.968l1.925,2.703c-0.862,0.725-1.367,1.48-1.514,2.266c-0.148,0.786,0.036,1.626,0.55,2.521
				c0.545,0.948,1.156,1.546,1.833,1.796c0.677,0.25,1.284,0.22,1.821-0.088c0.345-0.198,0.58-0.468,0.705-0.809
				c0.126-0.341,0.133-0.815,0.022-1.422c-0.079-0.413-0.319-1.32-0.719-2.722c-0.516-1.802-0.672-3.185-0.468-4.149
				c0.287-1.355,1.008-2.365,2.161-3.028c0.742-0.427,1.557-0.616,2.446-0.566c0.888,0.049,1.729,0.373,2.522,0.97
				c0.793,0.598,1.512,1.456,2.156,2.576c1.052,1.829,1.443,3.436,1.172,4.822c-0.27,1.386-1.061,2.486-2.373,3.303l-1.821-2.868
				c0.676-0.557,1.06-1.136,1.149-1.739c0.09-0.603-0.104-1.319-0.58-2.147c-0.492-0.855-1.052-1.423-1.682-1.705
				c-0.404-0.182-0.796-0.164-1.173,0.053c-0.345,0.198-0.556,0.513-0.633,0.946c-0.098,0.55,0.096,1.638,0.581,3.264
				c0.485,1.626,0.744,2.885,0.778,3.779c0.033,0.894-0.152,1.714-0.555,2.462c-0.403,0.748-1.066,1.387-1.987,1.916
				c-0.835,0.48-1.75,0.698-2.746,0.653c-0.996-0.045-1.915-0.389-2.757-1.034c-0.842-0.645-1.628-1.6-2.355-2.865
				c-1.06-1.842-1.448-3.502-1.164-4.979C420.945,501.402,421.847,500.098,423.367,498.968z"/>
			<path class="st0" d="M436.048,529.146l-2.102-3.036l2.304-3.38l-3.825-5.525l-3.929,1.032l-2.049-2.96l17.549-4.185l2.043,2.951
				L436.048,529.146z M437.959,520.222l3.811-5.455l-6.421,1.684L437.959,520.222z"/>
			<path class="st0" d="M437.769,531.232l12.907-10.554l2.148,2.628l-10.715,8.761l5.342,6.533l-2.193,1.793L437.769,531.232z"/>
			<path class="st0" d="M459.507,531.162l2.351,2.448l-6.566,6.307c-1.042,1.001-1.688,1.68-1.939,2.037
				c-0.396,0.581-0.554,1.213-0.476,1.896c0.078,0.683,0.446,1.366,1.102,2.049c0.667,0.695,1.312,1.082,1.935,1.162
				c0.623,0.08,1.175-0.043,1.658-0.368c0.482-0.326,1.203-0.949,2.162-1.87l6.707-6.442l2.351,2.448l-6.368,6.116
				c-1.456,1.398-2.547,2.32-3.275,2.764c-0.728,0.445-1.469,0.688-2.225,0.73c-0.755,0.042-1.541-0.118-2.358-0.477
				c-0.817-0.36-1.687-1.019-2.608-1.979c-1.112-1.158-1.822-2.164-2.129-3.019c-0.307-0.855-0.414-1.661-0.32-2.419
				c0.094-0.757,0.322-1.417,0.684-1.977c0.541-0.827,1.49-1.892,2.846-3.195L459.507,531.162z"/>
			<path class="st0" d="M463.189,558.439l4.678-5.308l1.817-11.375l2.985,2.631l-1.43,7.605l7.305-2.427l2.934,2.586l-11.089,3.234
				l-4.663,5.291L463.189,558.439z"/>
			<path class="st0" d="M482.372,552.818l2.724,2.025l-5.431,7.307c-0.862,1.16-1.387,1.936-1.575,2.33
				c-0.294,0.639-0.346,1.288-0.155,1.949c0.19,0.661,0.666,1.273,1.426,1.839c0.773,0.575,1.473,0.85,2.101,0.826
				c0.627-0.024,1.152-0.237,1.574-0.637c0.422-0.401,1.029-1.135,1.823-2.203l5.548-7.464l2.724,2.025l-5.267,7.087
				c-1.204,1.62-2.128,2.709-2.772,3.269c-0.644,0.559-1.335,0.922-2.073,1.088c-0.738,0.166-1.539,0.139-2.405-0.08
				c-0.865-0.22-1.832-0.726-2.9-1.519c-1.288-0.958-2.155-1.833-2.599-2.625c-0.445-0.792-0.684-1.57-0.717-2.332
				c-0.033-0.763,0.083-1.451,0.348-2.063c0.397-0.905,1.156-2.113,2.278-3.622L482.372,552.818z"/>
			<path class="st0" d="M492.613,580.535l8.336-14.598l2.868,1.638l0.408,13.161l5.567-9.749l2.738,1.564l-8.336,14.598
				l-2.957-1.689l-0.449-12.88l-5.436,9.52L492.613,580.535z"/>
			<path class="st0" d="M517.873,586.865l1.176-2.577l6.655,3.038l-2.781,6.092c-0.933,0.331-2.121,0.454-3.566,0.37
				c-1.445-0.084-2.797-0.413-4.055-0.988c-1.6-0.73-2.841-1.702-3.723-2.916c-0.883-1.214-1.339-2.581-1.367-4.103
				c-0.029-1.521,0.293-3.016,0.962-4.483c0.727-1.592,1.707-2.855,2.939-3.789c1.233-0.933,2.643-1.436,4.231-1.51
				c1.212-0.06,2.549,0.243,4.009,0.91c1.899,0.867,3.2,1.942,3.904,3.225c0.704,1.284,0.888,2.698,0.553,4.242l-3.329-0.826
				c0.127-0.85-0.007-1.627-0.404-2.333c-0.396-0.706-1.039-1.262-1.929-1.669c-1.349-0.616-2.617-0.678-3.804-0.186
				c-1.187,0.492-2.164,1.579-2.932,3.262c-0.829,1.815-1.047,3.361-0.654,4.636c0.392,1.276,1.242,2.212,2.55,2.809
				c0.647,0.295,1.353,0.464,2.119,0.507c0.766,0.043,1.464-0.01,2.096-0.159l0.886-1.94L517.873,586.865z"/>
			<path class="st0" d="M540.048,602.018l-3.484-1.222l-0.122-4.089l-6.341-2.223l-2.573,3.144l-3.398-1.192l11.741-13.697
				l3.387,1.188L540.048,602.018z M536.351,593.674l-0.122-6.653l-4.207,5.135L536.351,593.674z"/>
			<path class="st0" d="M543.767,603.059l0.145-17.282l3.373,0.835l-0.316,11.818l5.759-10.47l3.918,0.97l0.038,12.107l5.327-10.778
				l3.317,0.822l-8.004,15.336l-3.495-0.866l-0.229-13.004l-6.26,11.397L543.767,603.059z"/>
			<path class="st0" d="M577.687,609.715l-3.652-0.547l-0.886-3.994l-6.646-0.995l-1.938,3.571l-3.561-0.533l8.965-15.656
				l3.55,0.531L577.687,609.715z M572.491,602.212l-1.367-6.512l-3.169,5.833L572.491,602.212z"/>
			<path class="st0" d="M580.403,609.929l1.041-16.778l3.296,0.204l6.172,11.631l0.695-11.205l3.147,0.195l-1.041,16.778
				l-3.399-0.211l-6.085-11.361l-0.679,10.941L580.403,609.929z"/>
			<path class="st0" d="M605.774,604.482l-0.075-2.831l7.313-0.194l0.177,6.694c-0.692,0.707-1.706,1.34-3.041,1.899
				c-1.335,0.559-2.694,0.857-4.077,0.894c-1.758,0.046-3.3-0.282-4.626-0.984s-2.336-1.732-3.03-3.086
				c-0.694-1.354-1.062-2.838-1.104-4.45c-0.046-1.75,0.279-3.315,0.977-4.695c0.698-1.38,1.744-2.451,3.138-3.215
				c1.063-0.586,2.396-0.901,4.001-0.943c2.086-0.055,3.727,0.339,4.924,1.183c1.196,0.844,1.983,2.033,2.36,3.568l-3.353,0.72
				c-0.259-0.819-0.721-1.459-1.387-1.919c-0.666-0.46-1.488-0.678-2.466-0.652c-1.483,0.039-2.649,0.54-3.499,1.503
				c-0.85,0.963-1.251,2.369-1.202,4.219c0.053,1.995,0.535,3.479,1.448,4.452c0.913,0.974,2.088,1.442,3.524,1.404
				c0.711-0.019,1.42-0.177,2.127-0.475c0.707-0.298,1.311-0.652,1.813-1.063l-0.057-2.132L605.774,604.482z"/>
			<path class="st0" d="M615.315,593.445l3.371-0.393l1.054,9.043c0.167,1.435,0.317,2.361,0.451,2.776
				c0.224,0.667,0.631,1.175,1.223,1.526c0.591,0.351,1.357,0.471,2.299,0.361c0.957-0.111,1.655-0.391,2.096-0.839
				c0.44-0.448,0.677-0.962,0.709-1.543c0.032-0.581-0.029-1.532-0.182-2.853l-1.076-9.237l3.371-0.393l1.022,8.77
				c0.233,2.005,0.308,3.431,0.222,4.28c-0.086,0.849-0.34,1.587-0.764,2.213c-0.423,0.627-1.025,1.157-1.806,1.59
				c-0.781,0.433-1.832,0.727-3.153,0.881c-1.595,0.186-2.825,0.143-3.692-0.13c-0.867-0.272-1.574-0.675-2.12-1.208
				c-0.547-0.533-0.934-1.113-1.161-1.741c-0.332-0.931-0.606-2.331-0.824-4.198L615.315,593.445z"/>
			<path class="st0" d="M635.025,607.881l-3.393-16.465l3.234-0.667l9.004,9.607l-2.266-10.995l3.089-0.636l3.393,16.465
				l-3.336,0.687l-8.85-9.369l2.213,10.737L635.025,607.881z"/>
			<path class="st0" d="M659.5,584.353l3.217-1.047l3.292,10.119c0.43,1.323,0.645,2.379,0.644,3.167
				c-0.01,1.032-0.334,1.964-0.972,2.794c-0.638,0.831-1.63,1.465-2.974,1.902c-1.578,0.513-2.935,0.466-4.073-0.14
				c-1.138-0.606-1.988-1.762-2.551-3.469l2.929-1.339c0.334,0.904,0.679,1.508,1.035,1.81c0.536,0.461,1.16,0.575,1.872,0.344
				c0.72-0.234,1.162-0.605,1.326-1.113c0.164-0.508,0.036-1.408-0.385-2.703L659.5,584.353z"/>
			<path class="st0" d="M686.085,592.055l-3.412,1.411l-2.816-2.968l-6.21,2.568l0.177,4.059l-3.327,1.376l-0.373-18.037
				l3.317-1.372L686.085,592.055z M677.768,588.297l-4.524-4.879l0.285,6.632L677.768,588.297z"/>
			<path class="st0" d="M690.14,589.94l-6.248-12.491l-4.461,2.231l-1.272-2.543l11.948-5.976l1.272,2.543l-4.451,2.227
				l6.248,12.491L690.14,589.94z"/>
			<path class="st0" d="M699.887,584.834l-8.316-14.609l2.95-1.679l8.316,14.609L699.887,584.834z"/>
			<path class="st0" d="M712.058,577.654l-9.737-13.703l4.141-2.942l9.129,7.581l-4.184-11.094l4.15-2.949l9.737,13.703l-2.57,1.827
				l-7.665-10.787l4.945,12.72l-2.664,1.893l-10.375-8.861l7.665,10.787L712.058,577.654z"/>
			<path class="st0" d="M740.146,555.639l-2.798,2.409l-3.604-1.935l-5.092,4.385l1.441,3.799l-2.728,2.35l-6.01-17.01l2.72-2.342
				L740.146,555.639z M731.071,554.678l-5.826-3.215l2.351,6.208L731.071,554.678z"/>
			<path class="st0" d="M742.078,553.725l-12.029-11.743l2.307-2.363l12.839,2.918l-8.033-7.842l2.203-2.256l12.029,11.743
				l-2.379,2.437l-12.578-2.808l7.844,7.657L742.078,553.725z"/>
			<path class="st0" d="M741.376,530.206l3.934-4.797c0.887-1.082,1.646-1.838,2.277-2.27c0.85-0.578,1.785-0.904,2.804-0.978
				c1.019-0.073,2.061,0.089,3.124,0.486c1.063,0.397,2.204,1.096,3.421,2.094c1.07,0.878,1.883,1.767,2.439,2.668
				c0.679,1.101,1.064,2.193,1.155,3.275c0.07,0.819-0.088,1.717-0.475,2.695c-0.292,0.73-0.835,1.579-1.63,2.548l-4.05,4.939
				L741.376,530.206z M745.727,529.385l8.609,7.061l1.607-1.96c0.601-0.733,0.993-1.296,1.177-1.689
				c0.242-0.513,0.352-1.014,0.328-1.503c-0.024-0.489-0.254-1.061-0.691-1.716c-0.437-0.655-1.158-1.394-2.163-2.218
				c-1.005-0.824-1.849-1.368-2.532-1.632c-0.683-0.264-1.306-0.36-1.87-0.288c-0.563,0.072-1.099,0.309-1.608,0.713
				c-0.383,0.299-1.014,0.983-1.891,2.053L745.727,529.385z"/>
			<path class="st0" d="M765.244,527.185l-13.614-9.862l1.991-2.749l13.614,9.862L765.244,527.185z"/>
			<path class="st0" d="M769.528,521.33l-14.182-9.026l3.836-6.027c0.964-1.515,1.793-2.536,2.485-3.06
				c0.692-0.525,1.495-0.786,2.409-0.784c0.914,0.002,1.791,0.27,2.629,0.803c1.064,0.677,1.744,1.55,2.039,2.616
				c0.295,1.067,0.137,2.28-0.475,3.64c0.755-0.389,1.477-0.648,2.166-0.776c0.689-0.128,1.802-0.183,3.34-0.165l3.869,0.029
				l-2.18,3.425l-4.403,0.106c-1.571,0.033-2.586,0.094-3.045,0.182c-0.459,0.088-0.839,0.25-1.138,0.485
				c-0.299,0.235-0.658,0.682-1.077,1.34l-0.369,0.581l5.92,3.768L769.528,521.33z M763.166,513.258l1.348-2.119
				c0.874-1.374,1.362-2.268,1.464-2.684c0.101-0.416,0.072-0.811-0.089-1.185c-0.16-0.374-0.454-0.697-0.879-0.967
				c-0.477-0.304-0.944-0.422-1.399-0.354c-0.456,0.068-0.87,0.309-1.243,0.725c-0.18,0.212-0.64,0.898-1.378,2.059l-1.422,2.235
				L763.166,513.258z"/>
			<path class="st0" d="M778.668,506.463l-14.7-8.156l1.647-2.968l14.7,8.156L778.668,506.463z"/>
		</g>
	</g>
</g>
</svg>
